<svg width="50" height="50" viewBox="0 0 50 50" fill="none" xmlns="http://www.w3.org/2000/svg">
<path d="M36.643 17.937C35.808 18.307 34.911 18.557 33.968 18.67C34.93 18.094 35.668 17.18 36.016 16.092C35.116 16.626 34.119 17.014 33.058 17.222C32.208 16.318 30.998 15.752 29.658 15.752C27.086 15.752 25 17.838 25 20.412C25 20.776 25.042 21.13 25.12 21.472C21.247 21.277 17.816 19.422 15.518 16.604C15.118 17.294 14.888 18.094 14.888 18.946C14.888 20.562 15.711 21.989 16.96 22.824C16.196 22.799 15.478 22.59 14.85 22.241V22.301C14.85 24.558 16.455 26.441 18.587 26.869C18.195 26.975 17.784 27.031 17.36 27.031C17.06 27.031 16.767 27.003 16.483 26.949C17.076 28.799 18.796 30.147 20.835 30.183C19.24 31.433 17.231 32.178 15.049 32.178C14.673 32.178 14.302 32.156 13.937 32.113C15.999 33.436 18.447 34.206 21.077 34.206C29.647 34.206 34.332 27.108 34.332 20.952C34.332 20.752 34.327 20.55 34.318 20.35C35.228 19.692 36.018 18.873 36.641 17.94L36.643 17.937Z" fill="#D9D9D9"/>
</svg>
