<svg width="20" height="20" viewBox="0 0 20 20" fill="none" xmlns="http://www.w3.org/2000/svg">
<path d="M14.6084 6.225L10.4417 2.05833C10.1975 1.81417 9.8017 1.81417 9.55836 2.05833L5.3917 6.225C5.1467 6.46917 5.1467 6.865 5.3917 7.10833C5.6367 7.35167 6.03086 7.35333 6.27503 7.10833L9.37503 4.00833V12.5C9.37503 12.845 9.65503 13.125 10 13.125C10.345 13.125 10.625 12.845 10.625 12.5V4.00833L13.725 7.10833C13.8467 7.23083 14.0067 7.29167 14.1667 7.29167C14.3267 7.29167 14.4867 7.23167 14.6084 7.10833C14.8525 6.86417 14.8525 6.46917 14.6084 6.225Z" fill="#6E767D"/>
<path d="M16.4234 18.2867H3.57669C2.52335 18.2867 1.66669 17.43 1.66669 16.3767V11.6667C1.66669 11.3217 1.94669 11.0417 2.29169 11.0417C2.63669 11.0417 2.91669 11.3217 2.91669 11.6667V16.3767C2.91669 16.7408 3.21252 17.0367 3.57669 17.0367H16.4234C16.7875 17.0367 17.0834 16.7408 17.0834 16.3767V11.6667C17.0834 11.3217 17.3634 11.0417 17.7084 11.0417C18.0534 11.0417 18.3334 11.3217 18.3334 11.6667V16.3767C18.3334 17.43 17.4767 18.2867 16.4234 18.2867Z" fill="#6E767D"/>
</svg>
